<svg xmlns="http://www.w3.org/2000/svg" width="72" height="72" viewBox="0 0 72 72" fill="none">
    <path d="M14.8987 58.0366C15.4301 55.3049 16.1757 52.4618 17.237 49.7172C17.3035 50.039 17.375 50.3422 17.4465 50.6272C17.5197 50.9192 17.594 51.1957 17.6604 51.4432L17.6657 51.4626C17.7352 51.7215 17.7944 51.9428 17.8451 52.1494C17.9477 52.5676 17.9849 52.8106 17.9897 52.9664C18.0036 54.2676 18.8726 55.7194 20.5451 55.9521C32.2089 57.8555 43.4819 50.3906 45.9302 38.8037C47.5929 31.0032 55.3278 26.046 63.0574 27.7384C64.2558 28.0373 65.291 28.3844 66.2454 28.8291C68.5214 29.9336 70.5868 27.6174 69.8393 25.567C69.359 24.2051 68.8085 22.9045 68.1867 21.6664C67.6254 20.4838 66.9996 19.3812 66.3179 18.2973L66.3135 18.2905C61.4689 10.6571 53.6394 4.79675 44.0625 2.79501C25.9142 -1.12441 7.96987 9.81233 3.03796 27.4405L3.03233 27.4592C2.84483 28.0801 2.6268 28.8021 2.47734 29.5411C0.969693 36.6401 3.13378 43.662 7.51969 48.6297C6.4745 50.847 5.54181 53.1491 4.76667 55.4005L4.76092 55.4172L4.75546 55.434C4.07903 57.5177 3.54242 59.587 3.08045 61.4887L3.06932 61.5346L3.06037 61.5808C3.03 61.7377 2.99881 61.8981 2.96706 62.0614C2.66422 63.6187 2.30967 65.4419 2.12235 67.055L2.109 67.17V67.2857C2.109 68.5333 3.03444 70 4.76252 70H11.4284C13.0412 70 14.0819 68.66 14.0819 67.3506C14.0819 66.1232 14.1431 64.6355 14.2076 63.2217C14.401 61.4917 14.5897 59.8217 14.8987 58.0366Z" fill="#00992C" stroke="#F7EDBD" stroke-width="4"/>
    <path d="M31.7368 16.8554L35.9212 16.6667C35.7288 17.2704 35.5725 17.8239 35.4522 18.327C35.356 18.805 35.2839 19.2201 35.2358 19.5723C35.1637 20 35.1276 20.3774 35.1276 20.7044V21.7987C35.1276 22.1509 35.1156 22.5409 35.0915 22.9686C35.0675 23.3962 35.0434 23.8616 35.0194 24.3648C35.8851 24.3396 36.6186 24.3145 37.2198 24.2893C37.845 24.2642 38.3621 24.2516 38.7709 24.2516H39.9252C40.2138 24.2516 40.5023 24.239 40.7909 24.2138C41.0554 24.1887 41.332 24.1635 41.6206 24.1384C41.9332 24.0881 42.2338 24.0126 42.5224 23.912L42.6667 27.1195C42.1376 27.0692 41.6566 27.044 41.2238 27.044C40.815 27.044 40.4542 27.0315 40.1416 27.0063C39.7809 27.0063 39.4562 26.9937 39.1677 26.9686H38.0855C37.7248 26.9686 37.2799 26.9811 36.7508 27.0063C36.2458 27.0315 35.6446 27.0566 34.9472 27.0818C34.8991 27.5094 34.8631 27.912 34.839 28.2893C34.839 28.6667 34.851 29.0063 34.8751 29.3082C34.8751 29.6604 34.8991 29.9874 34.9472 30.2893C34.9713 30.6164 35.0194 30.9937 35.0915 31.4214C35.1396 31.7987 35.1997 32.2516 35.2719 32.7799C35.3681 33.3082 35.4763 33.9371 35.5965 34.6667H31.6647C31.7609 33.9874 31.833 33.3837 31.8811 32.8554C31.9532 32.3019 32.0134 31.8491 32.0615 31.4969C32.1096 31.0692 32.1456 30.6918 32.1697 30.3648C32.1937 29.9623 32.2178 29.5598 32.2418 29.1572C32.2659 28.805 32.2779 28.4403 32.2779 28.0629C32.2779 27.6604 32.2659 27.283 32.2418 26.9308C31.6406 26.9057 31.0995 26.9057 30.6186 26.9308C30.1617 26.9308 29.7649 26.9434 29.4282 26.9686C29.0434 26.9937 28.7067 27.0189 28.4182 27.044C28.1296 27.0943 27.8049 27.1321 27.4442 27.1572C27.1316 27.2076 26.7589 27.2453 26.326 27.2704C25.8931 27.2704 25.4242 27.2956 24.9192 27.3459L24.6667 24.2516C25.316 24.3019 25.8811 24.3396 26.3621 24.3648C26.8671 24.3899 27.2879 24.4025 27.6246 24.4025H32.5304C32.5304 23.7484 32.5184 23.1824 32.4943 22.7044C32.4943 22.2013 32.4823 21.7862 32.4582 21.4591C32.4342 21.0818 32.4102 20.7799 32.3861 20.5535C32.3621 20.3019 32.314 20 32.2418 19.6478C32.1937 19.3459 32.1216 18.9686 32.0254 18.5157C31.9532 18.0377 31.857 17.4843 31.7368 16.8554Z" fill="#FFF8D2"/>
  </svg>