<svg xmlns="http://www.w3.org/2000/svg" width="29" height="29" viewBox="0 0 29 29" fill="none">
    <path d="M23.302 0L29 5.347C27.9626 5.89751 27.0378 6.42897 26.2255 6.94137C25.4774 7.45229 24.8425 7.91122 24.3209 8.31817C23.6697 8.79394 23.131 9.25064 22.7048 9.68829L21.2789 11.1527C20.82 11.624 20.2963 12.1298 19.7077 12.6699C19.1191 13.21 18.4813 13.8006 17.7944 14.4418C18.9552 15.5666 19.9437 16.5145 20.7598 17.2853C21.6073 18.0884 22.2974 18.7634 22.8301 19.3105L24.3341 20.8552C24.7101 21.2414 25.1025 21.6107 25.5113 21.9632C25.8888 22.2835 26.2819 22.6199 26.6907 22.9724C27.1636 23.3235 27.6536 23.6247 28.1608 23.8762L24.1694 28.3616C23.5456 27.5863 22.9517 26.909 22.3877 26.3298C21.855 25.7827 21.4013 25.2832 21.0268 24.8312C20.5568 24.3484 20.1501 23.8972 19.8069 23.4773L18.3968 22.0292C17.9268 21.5465 17.3308 20.968 16.6086 20.2936C15.9178 19.6515 15.1017 18.8806 14.1602 17.9811C13.5403 18.489 12.9688 18.9794 12.4458 19.4522C11.9541 19.9572 11.5272 20.4277 11.1652 20.8639C10.7063 21.3352 10.3115 21.805 9.9808 22.2734C9.586 22.7432 9.15697 23.3125 8.69372 23.9814C8.2647 24.5507 7.753 25.2372 7.15863 26.0407C6.5956 26.8764 5.91711 27.8628 5.12318 29L0 23.7384C1.01039 22.9582 1.8911 22.2468 2.64214 21.6041C3.4573 20.9601 4.12567 20.4345 4.64725 20.0276C5.26717 19.5196 5.80587 19.0629 6.26334 18.6575C6.81914 18.151 7.37495 17.6445 7.93076 17.1381C8.42101 16.6989 8.91198 16.2269 9.40368 15.7219C9.92815 15.1833 10.4042 14.6622 10.8318 14.1587C10.0812 13.3205 9.37615 12.5964 8.71668 11.9865C8.12133 11.3751 7.58792 10.8609 7.11646 10.444C6.58233 9.96281 6.11087 9.54594 5.70208 9.19343C5.2605 8.87459 4.78832 8.49065 4.28552 8.0416C3.81262 7.69057 3.27776 7.24227 2.68096 6.69667C2.11695 6.11742 1.47314 5.52355 0.749563 4.91508L4.45244 0.436366C5.23291 1.37258 5.9201 2.17933 6.51401 2.85662C7.13925 3.56608 7.67122 4.14608 8.1099 4.59661L14.5021 11.1615C15.3544 10.2862 16.0763 9.51268 16.6677 8.84086C17.3233 8.16755 17.8485 7.59599 18.2433 7.12616C18.7037 6.589 19.0657 6.15284 19.3294 5.81767C19.6259 5.44884 19.9565 4.98049 20.3215 4.41264C20.6521 3.94429 21.0498 3.34277 21.5145 2.60807C22.0433 1.87189 22.6391 1.00253 23.302 0Z" fill="#40341D"/>
  </svg>