<svg xmlns="http://www.w3.org/2000/svg" width="30" height="30" viewBox="0 0 30 30" fill="none">
    <path fill-rule="evenodd" clip-rule="evenodd" d="M3.50155 2.03392C4.24928 1.44575 5.09143 0.963794 6.02799 0.588049C6.96704 0.186905 7.96618 -0.00900565 9.02543 0.000317652C10.0737 -0.00434902 11.154 0.231739 12.2662 0.708581C13.3675 1.17143 14.4488 1.96578 15.5101 3.09161C16.3825 4.00502 17.0343 5.09399 17.4657 6.35853C17.8995 7.59768 18.1454 8.86827 18.2032 10.1703C18.2611 11.4724 18.1384 12.7297 17.8352 13.9422C17.6741 14.5567 17.4741 15.1216 17.2352 15.6368C18.2029 16.6808 19.2456 17.7343 20.3521 18.7791C23.723 21.9617 27.1144 24.5225 30 26.185C29.7923 26.4029 29.5964 26.6096 29.4123 26.8051C29.1908 27.0403 28.9939 27.2714 28.8099 27.4873C28.631 27.6972 28.4643 27.8927 28.2992 28.0638C28.153 28.2498 27.9819 28.4376 27.7983 28.6392C27.6061 28.8502 27.4001 29.0763 27.1949 29.3309C27.0259 29.5406 26.8473 29.7637 26.6591 30C24.7889 27.1723 22.0106 23.9081 18.6397 20.7255C17.5873 19.7318 16.5329 18.7988 15.4925 17.9348C15.3293 18.0608 15.155 18.1815 14.9695 18.297C14.3551 18.6554 13.667 18.9484 12.9052 19.1758C12.1458 19.3778 11.3383 19.5042 10.4828 19.5549C9.64071 19.5942 8.8018 19.5376 7.96609 19.3851C7.11942 19.2186 6.30706 18.9531 5.52902 18.5885C4.76441 18.2126 4.08541 17.7174 3.49202 17.1029C2.98632 16.6004 2.49725 15.9905 2.02482 15.2734C1.55487 14.5308 1.15088 13.7439 0.812854 12.9127C0.477308 12.056 0.237611 11.1646 0.093763 10.2384C-0.0476062 9.28678 -0.0291155 8.33924 0.149235 7.39577C0.316622 6.43831 0.665795 5.51289 1.19675 4.61952C1.73019 3.70076 2.49845 2.83889 3.50155 2.03392ZM5.26818 4.41736C5.79325 4.00432 6.38464 3.66587 7.04233 3.40201C7.70175 3.12032 8.40339 2.98274 9.14723 2.98929C9.88338 2.98601 10.642 3.1518 11.423 3.48666C12.1964 3.81169 12.9557 4.3695 13.701 5.1601C14.3136 5.80153 14.7714 6.56624 15.0743 7.45425C15.3789 8.32442 15.5516 9.21667 15.5922 10.131C15.6328 11.0454 15.5467 11.9283 15.3338 12.7798C15.1131 13.6215 14.7886 14.3305 14.3601 14.9069C14.1007 15.2579 13.7545 15.5682 13.3213 15.8378C12.8899 16.0896 12.4067 16.2953 11.8717 16.455C11.3385 16.5968 10.7714 16.6856 10.1707 16.7212C9.5793 16.7488 8.99019 16.709 8.40333 16.6019C7.80876 16.485 7.2383 16.2986 6.69193 16.0426C6.155 15.7786 5.67818 15.4308 5.26148 14.9993C4.90636 14.6464 4.56292 14.2182 4.23116 13.7146C3.90114 13.1931 3.61745 12.6405 3.38008 12.0568C3.14444 11.4552 2.97612 10.8292 2.87511 10.1788C2.77583 9.51056 2.78882 8.84517 2.91406 8.18263C3.0316 7.51027 3.27681 6.86041 3.64966 6.23305C4.02426 5.58786 4.56376 4.98263 5.26818 4.41736Z" fill="#40341D"/>
  </svg>