<svg xmlns="http://www.w3.org/2000/svg" width="103" height="96" viewBox="0 0 103 96" fill="none">
    <path d="M23.9009 0C24.8348 0.093259 25.613 0.170975 26.2356 0.233148C26.8893 0.29532 27.4185 0.34195 27.8232 0.373036C28.2901 0.404122 28.6637 0.419666 28.9438 0.419666C29.224 0.450752 29.5976 0.450752 30.0645 0.419666C30.4692 0.388579 30.9984 0.357493 31.6521 0.326407C32.3058 0.264234 33.1307 0.170975 34.1268 0.0466295C33.9089 0.357493 33.7377 0.63727 33.6132 0.885961C33.4887 1.10357 33.3797 1.30563 33.2864 1.49214L33.0062 2.0517C32.9439 2.23822 32.8817 2.42473 32.8194 2.61125C32.7572 2.76668 32.6949 2.9532 32.6326 3.17081C32.6015 3.38841 32.5704 3.62156 32.5393 3.87025H39.7301L39.0764 7.64724L32.4926 7.2742C32.3369 8.85961 32.228 10.0875 32.1657 10.9579C32.1035 11.8284 32.0412 12.4656 31.9789 12.8697L31.8855 13.7091C31.7922 14.8904 31.6988 16.1804 31.6054 17.5793C31.512 18.9471 31.4809 20.2217 31.512 21.4029C31.5431 22.5842 31.6521 23.579 31.8389 24.3872C32.0256 25.1644 32.3525 25.553 32.8194 25.553C33.2864 25.553 33.7222 25.4286 34.1268 25.1799C34.5315 24.9312 34.8739 24.6359 35.1541 24.294C35.4654 23.952 35.6989 23.6101 35.8545 23.2681C36.0102 22.8951 36.088 22.6153 36.088 22.4288C36.088 22.2423 36.0413 22.0247 35.9479 21.776C35.7923 21.3097 35.5121 20.719 35.1074 20.0041C36.0102 20.2217 36.8039 20.4393 37.4888 20.6569C37.8312 20.7812 38.1425 20.9056 38.4227 21.0299C38.734 21.1543 39.0919 21.2941 39.4966 21.4496C39.839 21.605 40.2748 21.7915 40.804 22.0091C41.3332 22.2267 41.9558 22.491 42.6718 22.8018C41.9869 22.9262 41.4889 23.1282 41.1776 23.408C40.9908 23.5324 40.8507 23.6723 40.7573 23.8277C40.5394 24.1696 40.2904 24.6359 40.0102 25.2266C39.7301 25.7861 39.3098 26.3457 38.7495 26.9052C38.1892 27.4648 37.4265 27.9622 36.4615 28.3974C35.5277 28.8326 34.2669 29.0813 32.6793 29.1434C31.0295 29.2056 29.7688 28.9258 28.8972 28.3041C28.0567 27.6824 27.4341 26.9674 27.0294 26.1592C26.6559 25.3198 26.438 24.496 26.3757 23.6878C26.3134 22.8795 26.2667 22.3355 26.2356 22.0558C26.2045 21.776 26.2045 21.0765 26.2356 19.9574C26.2667 18.8383 26.3134 17.6104 26.3757 16.2737C26.438 14.9059 26.5002 13.6003 26.5625 12.3568C26.6247 11.0823 26.6559 10.1497 26.6559 9.55905C26.6559 9.24819 26.6714 8.92178 26.7026 8.57983C26.7026 8.30005 26.7026 8.00473 26.7026 7.69387C26.7337 7.35192 26.7492 7.02551 26.7492 6.71465L19.9787 6.66802L19.6985 4.01014L26.5158 4.19666C26.4535 3.85471 26.3757 3.54384 26.2823 3.26407C26.22 2.9532 26.1578 2.70451 26.0955 2.51799C26.0021 2.30039 25.9088 2.11387 25.8154 1.95844C25.6909 1.80301 25.5508 1.63203 25.3951 1.44552C25.2395 1.29008 25.0371 1.08802 24.7881 0.839331C24.5391 0.590641 24.2434 0.310863 23.9009 0Z" fill="#E8FF5B"/>
    <path d="M53.2712 8.48657C54.0806 8.48657 54.9211 8.642 55.7927 8.95287C56.6643 9.23264 57.5048 9.60568 58.3142 10.072C59.1235 10.5072 59.8551 10.989 60.5088 11.5175C61.1936 12.0149 61.7539 12.4967 62.1897 12.963C62.968 13.8023 63.4972 14.937 63.7773 16.367C64.0886 17.7658 64.1509 19.2114 63.9641 20.7035C63.7773 22.1646 63.3415 23.5479 62.6567 24.8535C61.9718 26.1592 61.0224 27.1228 59.8084 27.7446C58.9367 28.1798 58.0807 28.5217 57.2402 28.7704C56.3997 29.0191 55.5904 29.2056 54.8121 29.33C54.0339 29.4543 53.3024 29.5165 52.6175 29.5165C51.9327 29.5165 51.3412 29.5009 50.8432 29.4699C49.9093 29.4077 48.9287 29.0813 47.9015 28.4906C46.9053 27.9 45.9559 27.1695 45.0532 26.299C44.1815 25.4286 43.4344 24.4805 42.8119 23.4546C42.1893 22.3977 41.8157 21.4029 41.6912 20.4704C41.5044 19.1958 41.4733 17.8591 41.5978 16.4602C41.7223 15.0613 42.1737 13.7713 42.9519 12.59C43.7613 11.4087 44.9753 10.4295 46.5941 9.65231C48.2439 8.87515 50.4696 8.48657 53.2712 8.48657ZM51.7304 26.5788C52.0728 26.641 52.5397 26.5633 53.1312 26.3457C53.7226 26.097 54.2985 25.7084 54.8588 25.1799C55.4503 24.6515 55.9639 23.9831 56.3997 23.1749C56.8667 22.3355 57.1468 21.3252 57.2402 20.144C57.3336 18.9938 57.3336 17.9368 57.2402 16.9731C57.1779 16.0095 57.0379 15.1701 56.82 14.4551C56.6021 13.7091 56.353 13.1029 56.0729 12.6366C55.7927 12.1703 55.497 11.8439 55.1857 11.6574C54.6565 11.3776 54.0183 11.16 53.2712 11.0046C52.5241 10.818 51.886 10.8491 51.3568 11.0978C51.1078 11.2222 50.7965 11.4864 50.4229 11.8905C50.0494 12.2946 49.6758 12.8076 49.3023 13.4293C48.9287 14.0199 48.5863 14.7038 48.275 15.481C47.9949 16.2582 47.7925 17.0664 47.668 17.9057C47.5435 18.7451 47.5124 19.6466 47.5746 20.6102C47.668 21.5739 47.8703 22.491 48.1816 23.3614C48.4929 24.2007 48.9287 24.9312 49.4891 25.553C50.0805 26.1436 50.8276 26.4856 51.7304 26.5788Z" fill="#E8FF5B"/>
    <path d="M66.2054 12.2636C67.4194 12.2946 68.5245 12.3102 69.5206 12.3102C70.5479 12.3102 71.4351 12.3102 72.1822 12.3102C73.0538 12.3102 73.8476 12.2946 74.5636 12.2636C75.3107 12.2636 76.2601 12.2325 77.4119 12.1703C78.408 12.1392 79.6532 12.0926 81.1474 12.0304C82.6727 11.9682 84.5249 11.8905 86.7039 11.7973L86.4704 16.5535C84.7272 16.4291 83.2641 16.3514 82.0812 16.3203C80.9295 16.2582 79.9956 16.2115 79.2796 16.1804C78.4391 16.1494 77.7543 16.1494 77.2251 16.1804C76.6959 16.2115 75.9488 16.2582 74.9838 16.3203C74.1744 16.3825 73.0694 16.4602 71.6685 16.5535C70.2989 16.6157 68.5556 16.7245 66.4389 16.8799L66.2054 12.2636Z" fill="#E8FF5B"/>
    <path d="M0.466937 27.9622C1.55646 28.1176 2.50589 28.2419 3.31525 28.3352C4.12461 28.4285 4.79388 28.5062 5.32308 28.5683C5.94566 28.6305 6.47485 28.6772 6.91066 28.7082C7.40873 28.7704 8.01575 28.7393 8.73172 28.615C9.47881 28.4906 10.2726 28.3663 11.1131 28.2419C11.9536 28.0865 12.8252 27.9622 13.7279 27.8689C14.6307 27.7756 15.5023 27.7756 16.3428 27.8689C16.9031 27.9311 17.6191 28.0554 18.4907 28.2419C19.3623 28.4285 20.2806 28.7238 21.2456 29.1279C22.2417 29.532 23.2379 30.0605 24.234 30.7133C25.2301 31.3661 26.1329 32.1899 26.9422 33.1847C27.7516 34.1794 28.4209 35.3607 28.9501 36.7285C29.4793 38.0963 29.775 39.6973 29.8373 41.5314C29.9306 44.267 29.6816 46.7539 29.0902 48.9921C28.4987 51.2303 27.5804 53.1421 26.3352 54.7275C25.1212 56.3129 23.5803 57.5564 21.7126 58.4579C19.8448 59.3594 17.6658 59.8568 15.1754 59.95C13.2766 60.1054 11.4088 60.2453 9.5722 60.3697C8.79397 60.4319 7.96905 60.4785 7.09744 60.5096C6.25695 60.5407 5.41647 60.5717 4.57598 60.6028C3.73549 60.6028 2.92614 60.5873 2.14791 60.5562C1.36968 60.5251 0.653711 60.4785 0 60.4163C0.71597 60.0744 1.29186 59.7324 1.72767 59.3905C2.1946 59.0485 2.55259 58.7532 2.80162 58.5045C3.08178 58.1936 3.28412 57.9139 3.40864 57.6652C3.4709 57.3232 3.56428 56.6549 3.6888 55.6601C3.78219 54.8208 3.9067 53.6239 4.06235 52.0696C4.21799 50.5153 4.40477 48.4014 4.62267 45.728L4.90283 42.4173C5.05848 40.3656 5.12074 38.687 5.08961 37.3813C5.08961 36.0757 5.05848 35.0499 4.99622 34.3038C4.90283 33.4334 4.77832 32.7961 4.62267 32.392C4.49816 32.05 4.26469 31.6459 3.92227 31.1796C3.61098 30.8066 3.17517 30.3558 2.61485 29.8273C2.08565 29.2678 1.36968 28.6461 0.466937 27.9622ZM10.3193 45.1218C10.3816 47.8885 10.5216 50.0179 10.7395 51.5101C10.9886 52.9711 11.2532 54.0592 11.5333 54.7741C11.8758 55.5824 12.2493 56.0642 12.654 56.2197C13.2454 56.2197 13.9147 55.971 14.6618 55.4736C15.4089 54.9451 16.1404 54.1524 16.8564 53.0955C17.6035 52.0385 18.2728 50.7174 18.8642 49.132C19.4868 47.5466 19.9382 45.6969 20.2184 43.5831C20.4985 41.4692 20.4207 39.604 19.9849 37.9875C19.5491 36.371 18.9732 35.0188 18.2572 33.9307C17.5413 32.8116 16.8097 31.9723 16.0626 31.4128C15.3155 30.8221 14.7552 30.5268 14.3816 30.5268C13.9458 30.5268 13.5567 30.6511 13.2143 30.8998C12.8719 31.1174 12.3894 31.6304 11.7668 32.4386C11.4555 32.8738 11.1754 33.4955 10.9263 34.3038C10.7084 35.0188 10.5216 35.9669 10.366 37.1482C10.2103 38.3295 10.1637 39.8527 10.2259 41.7179L10.3193 45.1218Z" fill="#E8FF5B"/>
    <path d="M44.1255 53.7017C44.9971 53.7017 45.8065 53.6084 46.5536 53.4219C47.1762 53.2664 47.7676 53.0178 48.3279 52.6758C48.9194 52.3028 49.3085 51.7588 49.4953 51.0438C50.1179 51.1681 50.6471 51.2769 51.0829 51.3702C51.5187 51.4324 51.8922 51.4945 52.2035 51.5567C52.5459 51.65 52.8417 51.7121 53.0907 51.7432C53.3397 51.8054 53.6355 51.8676 53.9779 51.9297C54.2892 51.9919 54.6627 52.0696 55.0985 52.1629C55.5655 52.2251 56.1102 52.3183 56.7328 52.4427C56.2659 52.3805 55.7834 52.4271 55.2853 52.5826C54.8184 52.738 54.367 52.909 53.9312 53.0955C53.4331 53.3131 52.9662 53.5773 52.5304 53.8882C52.2502 54.0747 51.9234 54.3545 51.5498 54.7275C51.2074 55.1005 50.7093 55.458 50.0556 55.8C49.4019 56.1419 48.5303 56.4373 47.4408 56.6859C46.3824 56.9036 45.0127 56.9813 43.3317 56.9191C41.3083 56.8569 39.6118 56.4994 38.2421 55.8466C36.8724 55.1627 35.7673 54.3389 34.9269 53.3753C34.0864 52.3805 33.4794 51.308 33.1058 50.1578C32.7323 49.0076 32.5299 47.9351 32.4988 46.9404C32.4677 45.9456 32.7634 44.9042 33.386 43.8162C34.0086 42.7282 34.8802 41.7334 36.0008 40.8319C37.1526 39.9304 38.5378 39.1999 40.1566 38.6403C41.7753 38.0497 43.5496 37.7544 45.4796 37.7544C46.6003 37.7544 47.6275 37.8943 48.5614 38.174C49.5264 38.4227 50.398 38.7647 51.1763 39.1999C51.9856 39.6351 52.686 40.1325 53.2775 40.692C53.8689 41.2205 54.367 41.7645 54.7717 42.3241C55.1763 42.9147 55.5188 43.5364 55.7989 44.1892C56.048 44.7488 56.2503 45.3861 56.4059 46.101C56.5616 46.816 56.6083 47.5466 56.546 48.2926C54.1802 48.3548 52.2658 48.4014 50.8027 48.4325C49.3708 48.4636 48.2501 48.4792 47.4408 48.4792H43.752C43.1916 48.4792 42.4601 48.4947 41.5574 48.5258C40.6546 48.5569 39.5495 48.6035 38.2421 48.6657C38.3978 49.9091 38.7869 50.8728 39.4095 51.5567C40.0632 52.2095 40.748 52.7069 41.464 53.0488C42.2733 53.4219 43.1605 53.6395 44.1255 53.7017ZM39.9231 45.3083C40.9192 45.3705 41.7441 45.4171 42.3978 45.4482C43.0827 45.4793 43.643 45.5104 44.0788 45.5415C44.5458 45.5726 44.9193 45.5881 45.1995 45.5881H46.3668C47.145 45.5881 48.5925 45.5415 50.7093 45.4482C50.6159 44.0804 50.3202 43.039 49.8221 42.3241C49.3552 41.6091 48.8571 41.0806 48.3279 40.7387C47.7054 40.3656 47.0205 40.148 46.2734 40.0858C44.25 40.1169 42.7403 40.5366 41.7441 41.3448C40.7791 42.1531 40.1721 43.4743 39.9231 45.3083Z" fill="#E8FF5B"/>
    <path d="M55.5655 39.7128C56.4993 39.775 57.3243 39.8216 58.0402 39.8527C58.7873 39.8838 59.4099 39.9149 59.908 39.946C60.4683 39.977 60.9664 39.9926 61.4022 39.9926C61.838 39.9926 62.336 39.977 62.8964 39.946C63.3944 39.9149 64.0014 39.8682 64.7174 39.8061C65.4645 39.7128 66.3206 39.5885 67.2856 39.433C66.5385 39.8993 65.9315 40.3345 65.4645 40.7387C65.0287 41.1117 64.6863 41.4536 64.4373 41.7645C64.1571 42.1065 63.9703 42.4173 63.8769 42.6971C63.8147 42.9458 63.7524 43.4432 63.6902 44.1892C63.659 44.9042 63.6279 45.7436 63.5968 46.7072C63.5968 47.6398 63.6123 48.6346 63.6435 49.6915C63.6746 50.7485 63.7213 51.7121 63.7835 52.5826C63.8458 53.4219 63.9392 54.1369 64.0637 54.7275C64.1882 55.2871 64.3439 55.5513 64.5306 55.5202C64.7797 55.3026 65.1844 54.5721 65.7447 53.3286C65.9626 52.8002 66.2272 52.1318 66.5385 51.3236C66.8498 50.4842 67.2077 49.4739 67.6124 48.2926C68.0171 47.0803 68.4685 45.6658 68.9665 44.0494C69.4957 42.4329 70.0872 40.5521 70.7409 38.4072H74.8033C74.9278 40.521 75.0678 42.3707 75.2235 43.9561C75.3791 45.5415 75.5348 46.9248 75.6904 48.1061C75.8461 49.2563 75.9862 50.2355 76.1107 51.0438C76.2663 51.8209 76.422 52.4582 76.5776 52.9556C76.92 54.1369 77.2625 54.7741 77.6049 54.8674C77.885 54.8052 78.1808 54.4477 78.4921 53.7949C78.8345 53.1421 79.1458 52.3339 79.4259 51.3702C79.7372 50.4065 80.0174 49.3651 80.2664 48.246C80.5154 47.0958 80.7333 46.0233 80.9201 45.0286C81.1069 44.0338 81.2314 43.1634 81.2937 42.4173C81.3559 41.6712 81.3559 41.2049 81.2937 41.0184C81.2003 40.8319 81.0135 40.5677 80.7333 40.2257C80.4843 39.946 80.1419 39.604 79.7061 39.1999C79.3014 38.7958 78.7411 38.3139 78.0251 37.7544C78.8967 37.9098 79.7216 38.0186 80.4999 38.0808C81.3092 38.1119 82.0252 38.1429 82.6478 38.174C83.3638 38.2051 84.0175 38.2051 84.6089 38.174C85.2315 38.174 85.9942 38.1585 86.8969 38.1274C87.6751 38.0963 88.6401 38.0808 89.7919 38.0808C90.9748 38.0808 92.3601 38.0497 93.9477 37.9875C92.5468 38.4227 91.4262 38.8424 90.5857 39.2465C89.7764 39.6195 89.1538 39.977 88.718 40.319C88.1888 40.692 87.8152 41.0495 87.5973 41.3915C87.3794 41.8578 87.037 42.837 86.5701 44.3291C86.3833 44.9509 86.1498 45.728 85.8697 46.6606C85.5895 47.5621 85.2626 48.6346 84.8891 49.878C84.5155 51.1215 84.0953 52.567 83.6284 54.2146C83.1614 55.8311 82.6322 57.6807 82.0408 59.7635C81.6983 59.7013 81.3404 59.6702 80.9668 59.6702C80.6244 59.6391 80.2975 59.6236 79.9863 59.6236H78.9123C78.5387 59.6547 78.1341 59.6858 77.6983 59.7169C77.3247 59.748 76.8889 59.7946 76.3908 59.8568C75.8928 59.9189 75.348 59.9966 74.7566 60.0899L71.9549 48.7589L67.379 60.0899L62.1493 59.95C61.4956 56.4373 60.9664 53.6395 60.5617 51.5567C60.1881 49.4428 59.8768 47.8263 59.6278 46.7072C59.3476 45.4016 59.1609 44.4846 59.0675 43.9561C58.9118 43.3965 58.6784 42.8525 58.3671 42.3241C58.118 41.8888 57.7601 41.4381 57.2931 40.9718C56.8262 40.4744 56.2503 40.0548 55.5655 39.7128Z" fill="#E8FF5B"/>
    <path d="M24.6947 62.4183C25.5975 62.5737 26.3913 62.6825 27.0761 62.7447C27.7921 62.8069 28.3835 62.8535 28.8505 62.8846C29.4108 62.9156 29.8933 62.9312 30.298 62.9312C30.7026 62.9312 31.2785 62.9001 32.0256 62.8379C32.6482 62.7758 33.4576 62.698 34.4537 62.6048C35.481 62.5115 36.7417 62.3561 38.2359 62.1385C37.8001 62.2628 37.3954 62.6203 37.0219 63.211C36.6794 63.7705 36.3681 64.3767 36.088 65.0295C35.7456 65.8067 35.4498 66.6616 35.2008 67.5941C34.9829 68.4335 34.7027 69.5837 34.3603 71.0447C34.049 72.5058 33.7377 74.0912 33.4264 75.8009C33.1463 77.5107 32.9284 79.2515 32.7727 81.0234C32.6171 82.7643 32.586 84.3652 32.6793 85.8263C32.8039 87.2873 33.0996 88.4997 33.5665 89.4634C34.0335 90.396 34.7494 90.8934 35.7144 90.9555C37.1775 91.0799 38.3915 91.0954 39.3565 91.0022C40.3527 90.8778 41.162 90.7068 41.7846 90.4892C42.4072 90.2716 42.8897 90.0229 43.2321 89.7432C43.5745 89.4323 43.8391 89.137 44.0259 88.8572C44.524 88.1422 45.0376 87.2252 45.5668 86.1061C46.096 84.987 46.5629 83.9145 46.9676 82.8886C47.4034 81.8628 47.7614 80.9924 48.0416 80.2774C48.3217 79.5624 48.4618 79.2204 48.4618 79.2515C48.4618 79.3137 48.4462 79.6712 48.4151 80.324C48.4151 80.9457 48.3995 81.7073 48.3684 82.6088C48.3684 83.4793 48.3528 84.3963 48.3217 85.36C48.3217 86.3237 48.3062 87.1475 48.275 87.8314C48.2439 88.3909 48.2128 89.0126 48.1816 89.6965C48.1505 90.2872 48.1194 90.9866 48.0882 91.7949C48.0882 92.6031 48.0571 93.4891 47.9949 94.4527C46.6874 94.3595 45.4423 94.2973 44.2594 94.2662C43.0765 94.2351 42.0336 94.2196 41.1309 94.2196C40.0725 94.2196 39.0919 94.2351 38.1892 94.2662C37.2242 94.2973 36.1035 94.3439 34.8272 94.4061C33.7377 94.4683 32.3836 94.546 30.7649 94.6393C29.1462 94.7014 27.2784 94.7947 25.1617 94.919C25.4107 94.4838 25.613 94.0797 25.7687 93.7067C25.9555 93.3336 26.0955 93.0228 26.1889 92.7741C26.3134 92.4632 26.3913 92.199 26.4224 91.9814C26.6092 90.9866 26.7648 89.7276 26.8893 88.2044C27.0138 86.6501 27.1072 85.0025 27.1695 83.2617C27.2629 81.5208 27.3096 79.7489 27.3096 77.9459C27.3407 76.1118 27.3407 74.4176 27.3096 72.8633C27.2784 71.309 27.2162 69.9567 27.1228 68.8065C27.0605 67.6563 26.9671 66.8636 26.8426 66.4284C26.687 65.931 26.5002 65.4336 26.2823 64.9363C26.0955 64.5011 25.8621 64.0658 25.5819 63.6306C25.3329 63.1643 25.0371 62.7602 24.6947 62.4183Z" fill="#E8FF5B"/>
    <path d="M51.0766 75.3813L59.6683 75.4745C59.1702 77.3708 58.7967 78.9873 58.5476 80.324C58.3297 81.6607 58.1896 82.7798 58.1274 83.6813C58.0029 84.7072 57.9717 85.5776 58.034 86.2926C58.1274 86.9454 58.283 87.6448 58.5009 88.3909C58.6877 89.0126 58.9679 89.7276 59.3414 90.5359C59.715 91.3441 60.213 92.1524 60.8356 92.9606C60.4621 92.8363 60.0574 92.743 59.6216 92.6808C59.1858 92.6187 58.7811 92.572 58.4076 92.5409C57.9717 92.5098 57.5359 92.5098 57.1001 92.5409C56.6643 92.572 56.1818 92.6187 55.6526 92.6808C55.2168 92.743 54.6876 92.8207 54.065 92.914C53.4425 93.0072 52.7887 93.1316 52.1039 93.287C52.5708 91.8881 52.9288 90.6758 53.1779 89.6499C53.458 88.6241 53.6604 87.7692 53.7849 87.0853C53.9094 86.277 53.9872 85.6242 54.0183 85.1268C54.0183 84.5051 54.0183 83.8057 54.0183 83.0285C54.0183 82.2203 54.0183 81.4431 54.0183 80.697C54.0183 79.951 54.0028 79.2982 53.9717 78.7386C53.9405 78.148 53.8783 77.7749 53.7849 77.6195L53.3179 77.1532C53.1312 76.9978 52.851 76.7802 52.4775 76.5004C52.135 76.1895 51.6681 75.8165 51.0766 75.3813ZM54.3919 68.2003C55.0456 67.8584 55.6993 67.7651 56.353 67.9206C57.0379 68.076 57.5671 68.3713 57.9406 68.8065C58.3142 69.2417 58.4387 69.7546 58.3142 70.3453C58.2208 70.9359 57.7227 71.511 56.82 72.0706C55.9172 72.599 55.1234 72.7856 54.4386 72.6301C53.7537 72.4747 53.2712 72.1483 52.9911 71.6509C52.7109 71.1535 52.6642 70.5784 52.851 69.9256C53.0378 69.2417 53.5514 68.6666 54.3919 68.2003Z" fill="#E8FF5B"/>
    <path d="M83.1085 69.5992C82.8283 70.2831 82.5793 70.9048 82.3614 71.4644C82.1746 72.0239 82.0034 72.5213 81.8478 72.9565C81.6921 73.4539 81.552 73.8891 81.4275 74.2622C81.303 74.6974 81.1629 75.1948 81.0073 75.7543C80.8516 76.2517 80.6493 76.8734 80.4003 77.6195C80.1824 78.3345 79.9178 79.1894 79.6065 80.1841C79.3574 78.692 78.9061 77.5107 78.2524 76.6403C77.5986 75.7388 76.9294 75.0393 76.2445 74.5419C75.4352 73.9824 74.5636 73.5783 73.6297 73.3296C71.9487 73.0498 70.7347 73.0809 69.9876 73.4228C69.2405 73.7648 68.7424 74.2 68.4934 74.7285C68.3689 74.9461 68.2288 75.2258 68.0731 75.5678C67.9486 75.8787 67.8397 76.2051 67.7463 76.547C67.684 76.889 67.6685 77.2309 67.6996 77.5729C67.7307 77.9148 67.8708 78.1946 68.1198 78.4122C68.2755 78.5676 68.6802 78.7852 69.3339 79.065C69.9876 79.3137 70.7658 79.609 71.6685 79.951C72.6024 80.2618 73.583 80.6038 74.6103 80.9768C75.6686 81.3499 76.6648 81.7229 77.5986 82.0959C78.5325 82.469 79.3419 82.842 80.0267 83.215C80.7116 83.5881 81.1629 83.93 81.3808 84.2409C81.5676 84.5518 81.7699 84.9714 81.9879 85.4999C82.2369 85.9973 82.4081 86.5568 82.5015 87.1785C82.626 87.7692 82.6571 88.3909 82.5949 89.0437C82.5637 89.6655 82.3925 90.2872 82.0812 90.9089C81.7699 91.5306 81.2719 92.1057 80.587 92.6342C79.9333 93.1627 79.0462 93.5979 77.9255 93.9398C76.6181 94.3439 75.3574 94.4527 74.1433 94.2662C72.9293 94.0797 71.8086 93.7999 70.7814 93.4269C69.7852 93.0539 68.9136 92.6964 68.1665 92.3544C67.4194 91.9814 66.8902 91.826 66.5789 91.8881C66.2365 91.9503 65.8474 92.1213 65.4116 92.401C64.9758 92.6808 64.5555 92.9761 64.1509 93.287C63.7773 93.5668 63.4505 93.831 63.1703 94.0797C62.8901 94.2973 62.7501 94.375 62.7501 94.3129C62.7501 94.2507 62.7968 94.0642 62.8901 93.7533C63.0147 93.4424 63.1392 93.0694 63.2637 92.6342C63.4193 92.1679 63.5594 91.6705 63.6839 91.1421C63.8396 90.5825 63.9485 90.054 64.0108 89.5566C64.073 89.1525 64.1509 88.6551 64.2443 88.0645C64.3065 87.536 64.3843 86.8988 64.4777 86.1527C64.6022 85.3755 64.7423 84.4429 64.898 83.3549C65.0536 84.1632 65.2715 84.8626 65.5517 85.4532C65.863 86.0439 66.1587 86.5568 66.4389 86.992C66.7813 87.4894 67.1081 87.9091 67.4194 88.251C67.8864 88.6862 68.4311 89.0904 69.0537 89.4634C69.7074 89.8364 70.3611 90.1628 71.0148 90.4426C71.6685 90.6913 72.2911 90.8467 72.8826 90.9089C73.474 90.9711 73.9721 90.9089 74.3768 90.7224C74.7815 90.5359 75.1239 90.1939 75.404 89.6965C75.7153 89.1992 75.9332 88.6551 76.0578 88.0645C76.1823 87.4739 76.229 86.9143 76.1978 86.3858C76.1667 85.8263 76.0266 85.3755 75.7776 85.0336C75.5908 84.816 75.155 84.5362 74.4702 84.1943C73.8165 83.8523 73.0227 83.4793 72.0888 83.0751C71.1861 82.671 70.221 82.2514 69.1938 81.8161C68.1977 81.3809 67.2482 80.9457 66.3455 80.5105C65.4739 80.0442 64.7423 79.609 64.1509 79.2049C63.5905 78.7697 63.2793 78.3811 63.217 78.0392C63.1547 77.5418 63.108 76.9978 63.0769 76.4071C63.0458 75.7854 63.0769 75.1792 63.1703 74.5886C63.2948 73.9668 63.5127 73.3762 63.824 72.8167C64.1664 72.2571 64.6645 71.7908 65.3182 71.4178C65.754 71.1691 66.3299 70.9826 67.0459 70.8582C67.7618 70.7339 68.5556 70.6717 69.4273 70.6717C70.2989 70.6406 71.2016 70.6717 72.1355 70.765C73.0694 70.8271 73.9565 70.9204 74.797 71.0447C75.6686 71.138 76.4469 71.2623 77.1317 71.4178C77.8477 71.5732 78.3924 71.7131 78.766 71.8374C79.2018 71.9929 79.6687 72.0084 80.1668 71.8841C80.6026 71.7908 81.0695 71.5887 81.5676 71.2779C82.0657 70.967 82.5793 70.4075 83.1085 69.5992Z" fill="#E8FF5B"/>
    <path d="M84.2291 66.8481C85.163 66.9413 85.9412 67.0191 86.5638 67.0812C87.2175 67.1434 87.7467 67.19 88.1514 67.2211C88.6183 67.2522 88.9919 67.2677 89.2721 67.2677C89.5522 67.2988 89.9258 67.2988 90.3927 67.2677C90.7974 67.2367 91.3266 67.2056 91.9803 67.1745C92.634 67.1123 93.4589 67.0191 94.4551 66.8947C94.2372 67.2056 94.0659 67.4853 93.9414 67.734C93.8169 67.9516 93.708 68.1537 93.6146 68.3402L93.3344 68.8998C93.2722 69.0863 93.2099 69.2728 93.1476 69.4593C93.0854 69.6148 93.0231 69.8013 92.9609 70.0189C92.9297 70.2365 92.8986 70.4696 92.8675 70.7183H100.058L99.4046 74.4953L92.8208 74.1223C92.6651 75.7077 92.5562 76.9356 92.4939 77.806C92.4317 78.6764 92.3694 79.3137 92.3072 79.7178L92.2138 80.5572C92.1204 81.7384 92.027 83.0285 91.9336 84.4274C91.8402 85.7952 91.8091 87.0697 91.8402 88.251C91.8713 89.4323 91.9803 90.4271 92.1671 91.2353C92.3538 92.0125 92.6807 92.401 93.1476 92.401C93.6146 92.401 94.0504 92.2767 94.4551 92.028C94.8597 91.7793 95.2022 91.484 95.4823 91.1421C95.7936 90.8001 96.0271 90.4582 96.1827 90.1162C96.3384 89.7432 96.4162 89.4634 96.4162 89.2769C96.4162 89.0904 96.3695 88.8727 96.2761 88.6241C96.1205 88.1578 95.8403 87.5671 95.4356 86.8521C96.3384 87.0697 97.1322 87.2873 97.817 87.505C98.1594 87.6293 98.4707 87.7536 98.7509 87.878C99.0622 88.0023 99.4202 88.1422 99.8248 88.2977C100.167 88.4531 100.603 88.6396 101.132 88.8572C101.661 89.0748 102.284 89.339 103 89.6499C102.315 89.7743 101.817 89.9763 101.506 90.2561C101.319 90.3804 101.179 90.5203 101.086 90.6758C100.868 91.0177 100.619 91.484 100.338 92.0746C100.058 92.6342 99.6381 93.1937 99.0777 93.7533C98.5174 94.3129 97.7547 94.8102 96.7897 95.2454C95.8559 95.6807 94.5951 95.9294 93.0076 95.9915C91.3577 96.0537 90.097 95.7739 89.2254 95.1522C88.3849 94.5305 87.7623 93.8155 87.3576 93.0072C86.9841 92.1679 86.7662 91.3441 86.7039 90.5359C86.6417 89.7276 86.595 89.1836 86.5638 88.9038C86.5327 88.6241 86.5327 87.9246 86.5638 86.8055C86.595 85.6864 86.6417 84.4585 86.7039 83.1218C86.7662 81.754 86.8284 80.4483 86.8907 79.2049C86.9529 77.9304 86.9841 76.9978 86.9841 76.4071C86.9841 76.0963 86.9996 75.7699 87.0308 75.4279C87.0308 75.1481 87.0308 74.8528 87.0308 74.5419C87.0619 74.2 87.0775 73.8736 87.0775 73.5627L80.3069 73.5161L80.0267 70.8582L86.844 71.0447C86.7817 70.7028 86.7039 70.3919 86.6105 70.1121C86.5483 69.8013 86.486 69.5526 86.4238 69.3661C86.3304 69.1485 86.237 68.9619 86.1436 68.8065C86.0191 68.6511 85.879 68.4801 85.7233 68.2936C85.5677 68.1382 85.3654 67.9361 85.1163 67.6874C84.8673 67.4387 84.5716 67.1589 84.2291 66.8481Z" fill="#E8FF5B"/>
  </svg>