<svg xmlns="http://www.w3.org/2000/svg" width="157" height="157" viewBox="0 0 157 157" fill="none">
    <path d="M140.215 77.3442C134.466 65.4197 113.959 68.8687 113.959 68.8687C112.798 63.1265 134.227 56.7057 134.227 56.7057C136.032 56.8891 144.287 57.7697 147.824 58.1366C143.144 57.4578 138.151 54.8711 138.151 54.8711C128.699 50.2848 114.42 61.0535 114.42 61.0535C117.681 56.0452 113.48 50.3398 110.09 46.9276C111.785 49.8995 112.798 53.9538 112.798 53.9538C113.498 60.6132 108.432 67.2543 108.432 67.2543C93.6915 71.6205 92.0885 104.642 92.0885 104.642C91.849 97.5242 86.0819 76.0784 86.0819 76.0784C85.8608 73.455 87.9244 55.5499 87.9244 55.5499C89.5458 53.4952 99.4585 45.9369 99.4585 45.9369C93.6915 45.4599 83.5577 54.6326 83.5577 54.6326C81.9547 48.4502 87.7033 37.2045 87.7033 37.2045C88.8457 33.3153 101.301 37.9016 101.301 37.9016C104.747 36.0671 115.12 38.5987 116.962 39.039C122.177 40.3416 136.53 39.7362 138.151 40.1948C141.062 41.0203 150.57 54.1923 150.57 54.1923C150.57 47.533 146.664 47.2945 142.278 39.516C142.02 39.0207 141.689 38.5804 141.302 38.1768C136.217 32.6915 122.435 34.6545 119.892 35.0764C122.785 34.2509 130.302 27.5915 130.302 27.5915C136.585 7.7601 128.902 1.70612 125.196 0C129.897 3.28383 129.158 17.9418 129.158 17.9418C128.016 27.5915 113.957 32.8566 113.957 32.8566C101.741 34.6912 84.7166 31.2606 84.7166 31.2606C73.1825 33.7739 71.34 56.4672 71.34 56.4672C68.521 69.5107 70.7136 81.9654 72.1691 87.9277C70.0337 83.1597 65.5932 81.0133 65.5932 81.0133C41.18 73.2165 36.8133 52.7981 36.8133 52.7981C38.1767 10.3835 19.7517 14.7497 19.7517 14.7497C37.495 24.6012 27.8219 44.3225 27.8219 44.3225C24.837 42.0293 10.7787 35.6084 10.7787 35.6084C5.74862 32.343 0.497477 37.3696 0 37.8649C7.40688 31.5541 29.2037 51.6607 29.2037 51.6607C33.3494 55.3297 38.1767 72.7579 38.1767 72.7579C34.0495 69.0888 16.5457 71.382 16.5457 71.382C9.89426 73.1431 6.44877 87.159 6.19082 88.2781C6.92783 85.9482 10.7787 79.8759 10.7787 79.8759C18.6093 64.9611 48.5501 81.9306 48.5501 81.9306C54.7593 81.7104 62.6084 95.6896 62.6084 95.6896C66.0539 98.2213 67.2146 118.842 67.2146 118.842C68.8176 129.849 63.7507 144.305 63.7507 144.305C59.8446 152.781 49.9319 152.781 49.9319 152.781C47.4445 153.056 36.3342 151.643 36.3342 151.643C21.0046 150.652 22.9945 157 22.9945 157C22.5154 153.404 38.6558 155.092 38.6558 155.092C46.0258 156.45 51.9955 156.927 51.9955 156.927C59.6051 157.844 73.1844 149.809 73.1844 149.809C85.8608 145.919 85.6397 153.019 85.6397 153.019C85.6397 153.019 80.7939 153.936 85.4002 154.175C90.0065 154.395 102.443 151.863 102.443 151.863C110.274 151.643 128.699 154.175 128.699 154.175C121.329 151.423 115.562 149.111 115.562 149.111C93.4519 149.35 97.616 130.766 97.616 130.766C98.961 125.501 100.38 120.328 101.8 115.429C101.8 115.429 101.819 115.356 101.854 115.209C102.261 113.154 105.52 96.9188 105.52 96.9188C106.128 78.2615 113.498 79.3989 113.498 79.3989C126.617 69.3089 137.451 80.5547 137.451 80.5547C152.117 92.2407 156.705 85.6364 157 85.1594C152.615 89.4522 140.215 77.3442 140.215 77.3442ZM72.1894 87.9662C72.6685 89.0303 73.0185 90.2209 73.1844 91.5619C73.1844 91.5619 72.7422 90.2411 72.1894 87.9662Z" fill="#40341D"/>
  </svg>